# xmcd
#
# Track frame offsets:
#	180
#	18031
#	33412
#	49105
#	65116
#	87605
#	103059
#	122707
#	139238
#	156873
#	169576
#	185487
#	205425
#	221787
#	236522
#	247350
#	264080
#
# Disc length: 3727 seconds
#
# Revision: 1
# Processed by: cddbd v1.5.1PL0 Copyright (c) Steve Scherf et al.
# Submitted via: audiograbber 1.83.01
#
DISCID=fd0e8d11
DTITLE=Varios - Serie 32 - Momentos - Serie 32 CD2
DYEAR=1900
DGENRE=Ballad
TTITLE0=Joe Cocker and Jennifer Warnes - Up where We belong
TTITLE1=Diana Ross - Do you know where You going to
TTITLE2=Player - Baby come back
TTITLE3=Aphodite's Child - I'ts five o'clock
TTITLE4=Santa Esmeralda - You are my everyting
TTITLE5=The Bells - Stay a while
TTITLE6=Joe Jackson - Steppin' out
TTITLE7=Commodores - Three times a Lady
TTITLE8=Captain and Tennille - Muskrat Love
TTITLE9=Ben - Michael Jackson
TTITLE10=Touch me in the morning - Diana Ross
TTITLE11=Help me make it through the night - Gladys Knight
TTITLE12=I don't know how to love him - Yvonne Elliman
TTITLE13=Aphrodite's Child - Rain an Tears
TTITLE14=Maureen McGovern - The morning after
TTITLE15=The Righteous Brothers - You've lost taht lovin' feeling
TTITLE16=Barry White - You're the first, the last, my everything
EXTD=
EXTT0=
EXTT1=
EXTT2=
EXTT3=
EXTT4=
EXTT5=
EXTT6=
EXTT7=
EXTT8=
EXTT9=
EXTT10=
EXTT11=
EXTT12=
EXTT13=
EXTT14=
EXTT15=
EXTT16=
PLAYORDER=
